<svg xmlns="http://www.w3.org/2000/svg" width="1280" height="800" viewBox="0 0 1280 800"><defs>
<linearGradient id="bgGrad" x1="0" y1="0" x2="1" y2="1">
<stop offset="0" stop-color="#211c3d"/><stop offset="1" stop-color="#0c0a18"/>
</linearGradient>
<linearGradient id="catGrad" x1="0" y1="0" x2="1" y2="1">
<stop offset="0" stop-color="#8b6bff"/><stop offset="1" stop-color="#4f9dff"/>
</linearGradient>
<linearGradient id="panelGrad" x1="0" y1="0" x2="0" y2="1">
<stop offset="0" stop-color="#24213c" stop-opacity="0.96"/><stop offset="1" stop-color="#15122a" stop-opacity="0.96"/>
</linearGradient>
</defs><rect x="0.0" y="0.0" width="1280.0" height="30.0" rx="0.0" ry="0.0" fill="#0a0814"/><g transform="translate(26.0,15.0)"><rect x="-9.0" y="-9.0" width="18.0" height="18.0" rx="3.8" ry="3.8" fill="url(#catGrad)"/><path d="M -5.58 -4.95 L -1.6199999999999999 -10.35 L -0.45 -5.3999999999999995 Z" fill="url(#catGrad)"/><path d="M 5.58 -4.95 L 1.6199999999999999 -10.35 L 0.45 -5.3999999999999995 Z" fill="url(#catGrad)"/><path d="M -4.5 -5.3999999999999995 L -1.98 -8.549999999999999 L -1.08 -5.58 Z" fill="#ff9ec4"/><path d="M 4.5 -5.3999999999999995 L 1.98 -8.549999999999999 L 1.08 -5.58 Z" fill="#ff9ec4"/><circle cx="0" cy="0.72" r="5.58" fill="#ffffff"/><circle cx="-2.16" cy="0.0" r="0.9" fill="#2a2540"/><circle cx="2.16" cy="0.0" r="0.9" fill="#2a2540"/><path d="M -0.6300000000000001 1.8 L 0.6300000000000001 1.8 L 0 2.88 Z" fill="#ff7eb3"/><line x1="-1.8" y1="2.16" x2="-6.3" y2="1.6199999999999999" stroke="#e9e6ff" stroke-width="1.4"/><line x1="1.8" y1="2.16" x2="6.3" y2="1.6199999999999999" stroke="#e9e6ff" stroke-width="1.4"/><path d="M 8.549999999999999 -1.8 A 4.5 4.5 0 0 1 8.549999999999999 3.6" fill="none" stroke="#bcd0ff" stroke-width="2" opacity="0.8"/></g><text x="44.0" y="20.0" font-family="Helvetica Neue, Helvetica, Arial, sans-serif" font-size="13" fill="#cfc9ee" font-weight="600" text-anchor="start" opacity="1.0">PortWatcher</text><text x="150.0" y="20.0" font-family="Helvetica Neue, Helvetica, Arial, sans-serif" font-size="13" fill="#8b87a8" font-weight="600" text-anchor="start" opacity="1.0">32</text><text x="1180.0" y="20.0" font-family="Helvetica Neue, Helvetica, Arial, sans-serif" font-size="13" fill="#cfc9ee" font-weight="500" text-anchor="start" opacity="1.0">9:41</text><rect x="400.0" y="36.0" width="480.0" height="716.0" rx="18.0" ry="18.0" fill="url(#panelGrad)" stroke="#ffffff" stroke-width="0.1"/><g transform="translate(426.0,62.0)"><rect x="-15.0" y="-15.0" width="30.0" height="30.0" rx="6.3" ry="6.3" fill="url(#catGrad)"/><path d="M -9.3 -8.25 L -2.6999999999999997 -17.25 L -0.75 -9.0 Z" fill="url(#catGrad)"/><path d="M 9.3 -8.25 L 2.6999999999999997 -17.25 L 0.75 -9.0 Z" fill="url(#catGrad)"/><path d="M -7.5 -9.0 L -3.3 -14.25 L -1.7999999999999998 -9.3 Z" fill="#ff9ec4"/><path d="M 7.5 -9.0 L 3.3 -14.25 L 1.7999999999999998 -9.3 Z" fill="#ff9ec4"/><circle cx="0" cy="1.2" r="9.3" fill="#ffffff"/><circle cx="-3.5999999999999996" cy="0.0" r="1.5" fill="#2a2540"/><circle cx="3.5999999999999996" cy="0.0" r="1.5" fill="#2a2540"/><path d="M -1.05 3.0 L 1.05 3.0 L 0 4.8 Z" fill="#ff7eb3"/><line x1="-3.0" y1="3.5999999999999996" x2="-10.5" y2="2.6999999999999997" stroke="#e9e6ff" stroke-width="1.4"/><line x1="3.0" y1="3.5999999999999996" x2="10.5" y2="2.6999999999999997" stroke="#e9e6ff" stroke-width="1.4"/><path d="M 14.25 -3.0 A 7.5 7.5 0 0 1 14.25 6.0" fill="none" stroke="#bcd0ff" stroke-width="2" opacity="0.8"/></g><text x="450.0" y="60.0" font-family="Helvetica Neue, Helvetica, Arial, sans-serif" font-size="16" fill="#f2f0ff" font-weight="700" text-anchor="start" opacity="1.0">Settings</text><circle cx="862" cy="61" r="13" fill="#ffffff" opacity="0.06"/><line x1="857" y1="56" x2="867" y2="66" stroke="#cfc9ee" stroke-width="2"/><line x1="867" y1="56" x2="857" y2="66" stroke="#cfc9ee" stroke-width="2"/><text x="420.0" y="106.0" font-family="Helvetica Neue, Helvetica, Arial, sans-serif" font-size="11" fill="#8b87a8" font-weight="700" text-anchor="start" opacity="1.0">GENERAL</text><rect x="416.0" y="124.0" width="448.0" height="40.0" rx="10.0" ry="10.0" fill="#ffffff08"/><text x="430.0" y="149.0" font-family="Helvetica Neue, Helvetica, Arial, sans-serif" font-size="13" fill="#e7e3ff" font-weight="600" text-anchor="start" opacity="1.0">Language</text><rect x="700.0" y="132.0" width="150.0" height="24.0" rx="12.0" ry="12.0" fill="#ffffff12"/><text x="775.0" y="148.2" font-family="Helvetica Neue, Helvetica, Arial, sans-serif" font-size="12" fill="#cfc9ee" font-weight="600" text-anchor="middle" opacity="1.0">System  ▾</text><rect x="416.0" y="172.0" width="448.0" height="40.0" rx="10.0" ry="10.0" fill="#ffffff08"/><text x="430.0" y="197.0" font-family="Helvetica Neue, Helvetica, Arial, sans-serif" font-size="13" fill="#e7e3ff" font-weight="600" text-anchor="start" opacity="1.0">Start at login</text><rect x="810.0" y="180.0" width="40.0" height="24.0" rx="12.0" ry="12.0" fill="#4fcf8f"/><circle cx="842" cy="192" r="9" fill="#fff"/><text x="420.0" y="228.0" font-family="Helvetica Neue, Helvetica, Arial, sans-serif" font-size="11" fill="#8b87a8" font-weight="700" text-anchor="start" opacity="1.0">FAVORITES  (with alias names)</text><rect x="416.0" y="244.0" width="448.0" height="38.0" rx="10.0" ry="10.0" fill="#ffffff08"/><text x="430.0" y="269.0" font-family="Helvetica Neue, Helvetica, Arial, sans-serif" font-size="13" fill="#ffcf5c" font-weight="700" text-anchor="start" opacity="1.0">★ My Website</text><text x="600.0" y="269.0" font-family="Helvetica Neue, Helvetica, Arial, sans-serif" font-size="14" fill="#f2f0ff" font-weight="700" text-anchor="start" opacity="1.0">:8080</text><text x="650.0" y="269.0" font-family="Helvetica Neue, Helvetica, Arial, sans-serif" font-size="12" fill="#8b87a8" font-weight="500" text-anchor="start" opacity="1.0">python</text><rect x="416.0" y="290.0" width="448.0" height="38.0" rx="10.0" ry="10.0" fill="#ffffff08"/><text x="430.0" y="315.0" font-family="Helvetica Neue, Helvetica, Arial, sans-serif" font-size="13" fill="#ffcf5c" font-weight="700" text-anchor="start" opacity="1.0">★ API Server</text><text x="600.0" y="315.0" font-family="Helvetica Neue, Helvetica, Arial, sans-serif" font-size="14" fill="#f2f0ff" font-weight="700" text-anchor="start" opacity="1.0">:3000</text><text x="650.0" y="315.0" font-family="Helvetica Neue, Helvetica, Arial, sans-serif" font-size="12" fill="#8b87a8" font-weight="500" text-anchor="start" opacity="1.0">python</text><rect x="416.0" y="336.0" width="448.0" height="38.0" rx="10.0" ry="10.0" fill="#ffffff08"/><text x="430.0" y="361.0" font-family="Helvetica Neue, Helvetica, Arial, sans-serif" font-size="13" fill="#ffcf5c" font-weight="700" text-anchor="start" opacity="1.0">★ Dev Database</text><text x="600.0" y="361.0" font-family="Helvetica Neue, Helvetica, Arial, sans-serif" font-size="14" fill="#f2f0ff" font-weight="700" text-anchor="start" opacity="1.0">:5432</text><text x="650.0" y="361.0" font-family="Helvetica Neue, Helvetica, Arial, sans-serif" font-size="12" fill="#8b87a8" font-weight="500" text-anchor="start" opacity="1.0">python</text><text x="420.0" y="388.0" font-family="Helvetica Neue, Helvetica, Arial, sans-serif" font-size="11" fill="#8b87a8" font-weight="700" text-anchor="start" opacity="1.0">LAUNCHD SERVICES</text><rect x="416.0" y="404.0" width="448.0" height="36.0" rx="10.0" ry="10.0" fill="#ffffff08"/><text x="430.0" y="428.0" font-family="Helvetica Neue, Helvetica, Arial, sans-serif" font-size="12" fill="#e7e3ff" font-weight="600" text-anchor="start" opacity="1.0">com.bbcat.PortWatcher</text><rect x="780.0" y="411.0" width="56.0" height="22.0" rx="11.0" ry="11.0" fill="#b06bff33"/><text x="808.0" y="425.9" font-family="Helvetica Neue, Helvetica, Arial, sans-serif" font-size="11" fill="#d9c9ff" font-weight="600" text-anchor="middle" opacity="1.0">Launchd</text><rect x="416.0" y="448.0" width="448.0" height="36.0" rx="10.0" ry="10.0" fill="#ffffff08"/><text x="430.0" y="472.0" font-family="Helvetica Neue, Helvetica, Arial, sans-serif" font-size="12" fill="#e7e3ff" font-weight="600" text-anchor="start" opacity="1.0">com.user.nginx</text><rect x="780.0" y="455.0" width="56.0" height="22.0" rx="11.0" ry="11.0" fill="#b06bff33"/><text x="808.0" y="469.9" font-family="Helvetica Neue, Helvetica, Arial, sans-serif" font-size="11" fill="#d9c9ff" font-weight="600" text-anchor="middle" opacity="1.0">Launchd</text></svg>